HIERARCHY
ROOT Hips
{
	OFFSET -3.958830 18.904000 13.208200
	CHANNELS 6 Xposition Yposition Zposition Zrotation Yrotation Xrotation 
	JOINT LHipJoint
	{
		OFFSET 0.000000 0.000000 0.000000
		CHANNELS 3 Zrotation Yrotation Xrotation
		JOINT LeftUpLeg
		{
			OFFSET 1.800000 -1.400000 0.085000
			CHANNELS 3 Zrotation Yrotation Xrotation
			JOINT LeftLeg
			{
				OFFSET 2.215000 -6.000000 0.000000
				CHANNELS 3 Zrotation Yrotation Xrotation
				JOINT LeftFoot
				{
					OFFSET 2.500000 -6.900000 0.000000
					CHANNELS 3 Zrotation Yrotation Xrotation
					JOINT LeftToeBase
					{
						OFFSET 0.200000 -0.500000 1.950000
						CHANNELS 3 Zrotation Yrotation Xrotation
						End Site
						{
							OFFSET 0.000000 0.000000 0.000000
						}
					}
				}
			}
		}
	}
	JOINT RHipJoint
	{
		OFFSET 0.000000 0.000000 0.000000
		CHANNELS 3 Zrotation Yrotation Xrotation
		JOINT RightUpLeg
		{
			OFFSET -1.800000 -1.400000 0.085000
			CHANNELS 3 Zrotation Yrotation Xrotation
			JOINT RightLeg
			{
				OFFSET -2.215000 -6.000000 0.000000
				CHANNELS 3 Zrotation Yrotation Xrotation
				JOINT RightFoot
				{
					OFFSET -2.500000 -6.900000 0.000000
					CHANNELS 3 Zrotation Yrotation Xrotation
					JOINT RightToeBase
					{
						OFFSET -0.200000 -0.500000 1.950000
						CHANNELS 3 Zrotation Yrotation Xrotation
						End Site
						{
							OFFSET 0.000000 0.000000 0.000000
						}
					}
				}
			}
		}
	}
	JOINT LowerBack
	{
		OFFSET 0.000000 0.000000 0.000000
		CHANNELS 3 Zrotation Yrotation Xrotation
		JOINT Spine
		{
			OFFSET -0.087000 1.940000 -0.288900
			CHANNELS 3 Zrotation Yrotation Xrotation
			JOINT Spine1
			{
				OFFSET 0.000000 1.950000 0.060000
				CHANNELS 3 Zrotation Yrotation Xrotation
				JOINT Neck
				{
					OFFSET 0.000000 0.000000 0.000000
					CHANNELS 3 Zrotation Yrotation Xrotation
					JOINT Neck1
					{
						OFFSET 0.000000 1.600000 0.340000
						CHANNELS 3 Zrotation Yrotation Xrotation
						JOINT Head
						{
							OFFSET 0.000000 1.667000 -0.240000
							CHANNELS 3 Zrotation Yrotation Xrotation
							End Site
							{
								OFFSET 0.000000 0.000000 0.000000
							}
						}
					}
				}
				JOINT LeftShoulder
				{
					OFFSET 0.000000 0.000000 0.000000
					CHANNELS 3 Zrotation Yrotation Xrotation
					JOINT LeftArm
					{
						OFFSET 2.700000 1.550000 -0.730000
						CHANNELS 3 Zrotation Yrotation Xrotation
						JOINT LeftForeArm
						{
							OFFSET 5.450000 0.000000 0.000000
							CHANNELS 3 Zrotation Yrotation Xrotation
							JOINT LeftHand
							{
								OFFSET 3.450000 0.000000 0.000000
								CHANNELS 3 Zrotation Yrotation Xrotation
								JOINT LeftHandIndex1
								{
									OFFSET 0.750000 0.000000 0.000000
									CHANNELS 3 Zrotation Yrotation Xrotation
									End Site
									{
										OFFSET 0.000000 0.000000 0.000000
									}
								}
							}
						}
					}
				}
				JOINT RightShoulder
				{
					OFFSET 0.000000 0.000000 0.000000
					CHANNELS 3 Zrotation Yrotation Xrotation
					JOINT RightArm
					{
						OFFSET -2.700000 1.550000 -0.730000
						CHANNELS 3 Zrotation Yrotation Xrotation
						JOINT RightForeArm
						{
							OFFSET -5.450000 0.000000 0.000000
							CHANNELS 3 Zrotation Yrotation Xrotation
							JOINT RightHand
							{
								OFFSET -3.450000 0.000000 0.000000
								CHANNELS 3 Zrotation Yrotation Xrotation
								JOINT RightHandIndex1
								{
									OFFSET -0.750000 0.000000 0.000000
									CHANNELS 3 Zrotation Yrotation Xrotation
									End Site
									{
										OFFSET 0.000000 0.000000 0.000000
									}
								}
							}
						}
					}
				}
			}
		}
	}
}
MOTION
Frames: 12
Frame Time: 0.016667
-0.509750 17.500800 1.682300 -16.822184 17.481685 -3.591226 -14.847149 11.018022 1.619732 11.188734 -1.113582 -8.021671 -2.202894 3.338146 1.579443 -0.359705 3.446492 3.551505 0.043860 -0.156780 0.047170 19.012953 -8.784182 6.418554 -37.739385 1.519476 -37.243235 91.902378 -30.585704 14.906440 -2.009107 -10.357335 0.912830 -0.011190 0.255250 0.150200 -5.161031 0.493996 -9.180372 36.646530 -4.135056 8.875848 -12.919732 1.429467 7.124026 5.268624 3.717879 -17.106328 8.788258 -23.396161 18.605256 -8.242680 -17.584150 -3.233950 -2.017739 -26.182643 11.883271 6.743225 -6.217480 -0.745592 1.110977 17.938512 -1.300408 -4.749115 2.379832 0.091250 0.208700 -0.218620 0.030780 -10.903957 27.329490 5.650433 -4.106300 8.678524 -14.440045 -83.367970 74.867696 -55.476072 1.070326 0.861475 -0.141520 0.086840 0.101830 -0.034300 
-0.494330 17.481360 1.675770 -16.868223 16.623963 -2.804124 -14.831742 10.836356 1.584075 11.730230 -1.247821 -8.410381 -3.518194 3.529490 1.831610 -0.418899 3.559086 3.526718 0.139270 -0.073110 0.127070 19.080557 -8.703039 6.528689 -39.758772 0.499760 -38.722178 95.876587 -31.711932 13.929692 -2.077961 -10.444478 0.909076 0.068670 0.268630 0.162480 -5.233489 0.703287 -9.158440 36.973816 -3.798649 7.917764 -12.549789 1.373467 7.039996 5.472180 3.557939 -16.045988 8.917100 -23.563110 17.202983 -8.800170 -17.244080 -4.234160 -3.403893 -25.517927 11.619524 7.724159 -6.213523 -0.419084 1.297034 16.546204 -1.408749 -4.687443 2.433312 0.105400 0.228670 -0.214150 0.069970 -9.753448 26.404647 4.876940 -5.533611 9.282582 -13.967351 -82.217953 74.838883 -54.259128 1.007766 0.771311 -0.159950 0.125990 0.054330 -0.052750 
-0.477860 17.452230 1.653210 -17.024779 15.501932 -2.503459 -14.821383 10.671004 1.528884 12.012969 -1.260631 -8.172883 -4.274293 3.657439 2.005298 -0.477362 3.660556 3.491868 0.220100 0.037190 0.165650 19.141487 -8.662744 6.635789 -41.793045 -0.606047 -40.047166 100.982228 -33.297508 12.864063 -2.145667 -10.581799 0.877963 0.175230 0.293560 0.168600 -5.295594 0.963264 -9.134581 37.040284 -3.586343 7.219191 -11.851044 1.064407 8.048690 5.721252 3.550176 -15.501896 9.381752 -23.486651 15.877332 -9.298230 -16.826600 -4.853560 -4.326366 -24.761926 11.235039 8.874669 -5.822046 -0.226149 1.923082 15.610062 -1.425274 -4.693432 2.474960 0.077030 0.266710 -0.225380 0.098280 -9.151797 25.552695 4.905640 -6.241292 9.291904 -13.778445 -81.257766 71.362378 -51.651540 1.187565 0.134002 -0.171320 0.164200 0.028400 -0.052690 
-0.462760 17.433700 1.623670 -17.211956 14.609228 -2.603171 -14.809604 10.537013 1.472401 12.248968 -1.230045 -7.833589 -4.893137 3.804749 2.282963 -0.521169 3.750903 3.468945 0.282660 0.132090 0.178020 19.195138 -8.641414 6.727777 -43.560812 -1.720931 -40.956145 106.216633 -34.621099 11.533314 -2.189931 -10.673075 0.873284 0.273920 0.329580 0.144710 -5.361732 1.198299 -9.119674 37.173530 -3.722023 6.758977 -11.334375 0.554466 9.240753 5.864074 3.486197 -15.104715 9.534222 -23.183243 15.196466 -8.966680 -16.873150 -5.074830 -4.998510 -24.078227 10.985755 9.189300 -5.129968 -0.118595 3.405793 15.141200 -1.256119 -4.701952 2.515117 0.040050 0.296180 -0.256190 0.130050 -8.590286 24.828167 4.998187 -6.266522 9.788995 -13.825477 -78.605400 67.375477 -47.897136 1.398232 -0.492789 -0.193910 0.215220 0.005510 -0.043150 
-0.438410 17.430700 1.590910 -17.616227 13.721351 -2.796847 -14.804839 10.457304 1.460452 12.542961 -1.184511 -7.408004 -5.192799 3.842476 2.115253 -0.545055 3.812005 3.444368 0.364430 0.237470 0.217360 19.221815 -8.624945 6.782006 -44.833635 -2.378778 -41.547815 110.159070 -35.785687 10.593389 -2.247029 -10.745150 0.860210 0.358650 0.324770 0.141440 -5.385222 1.319022 -9.133224 37.956757 -3.897076 6.720984 -11.210173 0.339882 10.390674 6.132470 3.288477 -15.177893 9.535039 -23.267826 14.626092 -8.841280 -17.053100 -5.910330 -5.338232 -23.480956 10.696460 8.945952 -4.617999 -0.087278 4.840114 15.249833 -1.063955 -4.707221 2.552546 0.028260 0.298780 -0.250130 0.157180 -8.638208 24.638707 5.548633 -5.262423 9.370528 -14.341018 -78.548556 63.431522 -46.572685 1.584309 -0.915855 -0.190000 0.237850 -0.031460 -0.039400 
-0.407800 17.448980 1.558100 -18.242610 13.345085 -3.161455 -14.812414 10.472853 1.454433 12.794233 -1.150525 -7.255422 -4.816995 3.784545 1.939328 -0.532985 3.796203 3.455401 0.378290 0.264010 0.217600 19.216576 -8.594330 6.816850 -45.521131 -2.910646 -41.185827 113.275270 -35.983423 9.397636 -2.265261 -10.709842 0.887163 0.374420 0.321890 0.122840 -5.354994 1.234863 -9.160002 39.143446 -4.419986 6.987843 -11.225557 0.091290 11.054051 6.150948 2.996116 -15.554385 9.201098 -23.508130 14.551438 -8.469420 -17.492850 -6.207050 -5.421106 -23.247128 10.773292 7.733888 -3.796834 -0.057079 6.884480 14.617357 -0.720646 -4.678576 2.584004 0.022330 0.286780 -0.248950 0.167950 -8.582149 24.884964 6.124982 -4.130723 8.523859 -15.207686 -77.578292 60.571613 -44.856014 1.738528 -1.184341 -0.189470 0.251430 -0.046780 -0.029250 
-0.377090 17.467860 1.530580 -18.865312 12.910340 -3.374421 -14.819714 10.500640 1.444923 13.055892 -1.128184 -7.357856 -4.314495 3.712177 1.849267 -0.522289 3.767512 3.478313 0.359820 0.246840 0.189250 19.207001 -8.559569 6.861958 -46.195386 -3.167114 -40.539801 115.882361 -35.667966 8.183959 -2.264775 -10.637221 0.929206 0.360730 0.334990 0.105930 -5.319124 1.130027 -9.190319 40.526435 -4.740843 7.336092 -11.416572 0.215524 11.343510 6.063759 2.707087 -15.993094 8.981815 -24.328819 14.341547 -7.932770 -18.491890 -6.323190 -5.541043 -23.089128 10.854131 6.787125 -2.980658 -0.005066 7.801581 14.009791 -0.571503 -4.650003 2.585881 0.026460 0.275780 -0.255400 0.177900 -8.322453 25.298053 6.740432 -3.161049 7.078031 -16.241582 -77.017073 58.562616 -43.660159 1.865460 -1.354862 -0.198090 0.268730 -0.042900 -0.015110 
-0.342740 17.490270 1.508770 -19.529857 13.125942 -3.809453 -14.824362 10.540747 1.444815 13.415774 -1.080153 -7.454544 -4.063961 3.708405 1.875370 -0.477733 3.744411 3.485769 0.338650 0.229150 0.154170 19.196207 -8.558469 6.847367 -47.166816 -3.515929 -38.642525 117.949186 -35.226438 6.972192 -2.245921 -10.511811 0.977486 0.331820 0.327950 0.097910 -5.291175 1.001623 -9.196845 41.988125 -4.973874 7.332490 -11.928531 0.385320 11.354133 5.942637 2.634116 -16.127991 8.890836 -25.752549 14.608573 -7.328750 -20.209940 -6.303340 -5.688107 -23.219535 10.314953 6.539421 -4.478991 -0.443974 8.189233 15.337238 -0.459097 -4.662304 2.590687 0.017810 0.251970 -0.252680 0.181740 -7.954388 25.558207 7.553953 -1.522973 5.520695 -17.004392 -75.484347 56.598875 -41.682406 1.970304 -1.499460 -0.178340 0.261080 -0.039470 0.009520 
-0.303610 17.513210 1.476290 -20.225190 13.833928 -4.453245 -14.841126 10.617456 1.449666 13.668300 -1.015715 -7.591392 -3.645120 3.677676 1.892190 -0.398242 3.696199 3.501533 0.299080 0.193570 0.091580 19.168595 -8.539189 6.828816 -48.287647 -3.898208 -35.388956 119.752129 -33.993949 5.492857 -2.195641 -10.284529 1.055489 0.277990 0.327220 0.103050 -5.223827 0.753092 -9.205305 43.688877 -5.693654 7.546793 -13.172735 0.439851 11.552196 5.838980 2.626575 -16.660574 8.832600 -26.794746 14.983593 -6.047030 -21.903430 -6.071950 -5.127194 -23.240825 10.062152 6.937979 -5.096272 -0.576983 6.622748 15.103140 -0.685489 -4.656055 2.567785 -0.003220 0.229430 -0.249860 0.190500 -8.395297 25.797944 8.627598 1.161042 3.493758 -18.296608 -74.924977 54.186098 -40.388565 2.126943 -1.676713 -0.140840 0.232020 -0.030620 0.049220 
-0.264780 17.530020 1.472210 -20.376442 11.701887 -2.976687 -14.822200 10.540048 1.471585 13.548732 -1.116641 -8.182652 -3.585437 3.531624 1.422070 -0.450925 3.634438 3.502082 0.334980 0.218680 0.137480 19.196512 -8.545767 6.858818 -49.307872 -3.706828 -35.116704 120.686751 -33.674105 4.837655 -2.195342 -10.245061 1.053701 0.299780 0.292980 0.116250 -5.268814 0.894334 -9.177097 44.814277 -5.182430 6.624560 -13.386660 0.897656 11.453187 5.940167 2.443091 -16.539459 8.869137 -26.804688 14.216776 -6.924720 -21.195050 -6.378830 -5.487505 -22.426180 10.250482 6.235867 -3.681392 0.023671 6.411790 12.740464 -0.763995 -4.577227 2.618066 0.016050 0.228290 -0.240990 0.175500 -8.184632 25.182104 8.440963 1.720111 4.369365 -17.851883 -72.280244 52.799014 -37.864203 2.085409 -1.742787 -0.138630 0.208230 -0.038490 0.017280 
-0.233180 17.535960 1.463570 -20.842509 10.704776 -2.018423 -14.811070 10.470419 1.484581 13.748474 -1.190739 -8.805092 -3.450812 3.419742 1.035332 -0.481041 3.592887 3.507755 0.346110 0.217210 0.163300 19.211339 -8.529593 6.889585 -50.109248 -3.434156 -32.887473 121.458640 -31.769818 3.558875 -2.137215 -10.008373 1.104311 0.305780 0.273190 0.116360 -5.294578 0.960561 -9.165611 46.163455 -4.961082 5.577547 -14.189179 1.313043 11.732450 6.106226 2.366812 -16.752737 9.048291 -27.173198 13.672448 -7.405080 -21.098100 -6.295750 -4.931208 -21.930523 10.190572 5.906630 -3.442303 0.295268 5.605454 11.486275 -0.876944 -4.543966 2.617257 0.029260 0.221740 -0.239520 0.166070 -9.013190 24.912468 8.746922 3.375772 4.602933 -17.994741 -69.947823 50.697247 -35.433799 2.130256 -1.875642 -0.146180 0.195050 -0.043920 -0.001390 
-0.208480 17.532930 1.455400 -20.955831 9.652252 -1.503776 -14.797492 10.432127 1.484615 13.647413 -1.152110 -8.718144 -3.215277 3.325252 0.588873 -0.467133 3.575230 3.523939 0.345210 0.220010 0.144860 19.228656 -8.520083 6.910449 -50.845527 -3.037515 -30.123590 121.801875 -29.835891 2.550608 -2.065820 -9.753670 1.176709 0.306190 0.292580 0.117430 -5.333263 1.008514 -9.132342 47.038547 -5.067519 4.769114 -14.449112 1.070734 11.761400 6.014662 1.971692 -16.279590 8.231179 -26.698979 13.935588 -6.910450 -21.234840 -6.309650 -5.367457 -21.433110 10.339210 5.563415 -2.357586 0.537422 5.279683 10.442478 -0.914581 -4.494568 2.659535 0.013780 0.226410 -0.250250 0.177250 -8.325831 24.398473 8.271941 2.082575 6.260605 -16.905542 -65.781491 48.777817 -31.717262 2.099725 -1.897200 -0.140680 0.200020 -0.041700 0.014380 
